<svg width="36" height="36" viewBox="0 0 36 36" fill="none" xmlns="http://www.w3.org/2000/svg">
<circle cx="18" cy="18" r="18" fill="#FF4550"/>
<path d="M18 16C16.72 16 15.48 16.2 14.32 16.576V19.056C14.32 19.368 14.136 19.648 13.872 19.776C13.088 20.168 12.376 20.672 11.744 21.256C11.6 21.4 11.4 21.48 11.184 21.48C10.96 21.48 10.76 21.392 10.616 21.248L8.63199 19.264C8.48799 19.128 8.39999 18.928 8.39999 18.704C8.39999 18.48 8.48799 18.28 8.63199 18.136C11.072 15.824 14.368 14.4 18 14.4C21.632 14.4 24.928 15.824 27.368 18.136C27.512 18.28 27.6 18.48 27.6 18.704C27.6 18.928 27.512 19.128 27.368 19.272L25.384 21.256C25.24 21.4 25.04 21.488 24.816 21.488C24.6 21.488 24.4 21.4 24.256 21.264C23.624 20.672 22.904 20.176 22.12 19.784C21.856 19.656 21.672 19.384 21.672 19.064V16.584C20.52 16.2 19.28 16 18 16Z" fill="white"/>
</svg>
