<svg width="36" height="36" viewBox="0 0 36 36" fill="none" xmlns="http://www.w3.org/2000/svg">
<g opacity="0.5">
<circle cx="18" cy="18" r="18" fill="white"/>
<path d="M24.5333 18H22.9467C22.9467 18.6906 22.7973 19.3346 22.5453 19.9133L23.6933 21.0613C24.216 20.1466 24.5333 19.1106 24.5333 18ZM20.7813 18.1586C20.7813 18.1026 20.8 18.056 20.8 18V12.4C20.8 10.8506 19.5493 9.59998 18 9.59998C16.4507 9.59998 15.2 10.8506 15.2 12.4V12.568L20.7813 18.1586ZM10.7853 10.5333L9.60001 11.7186L15.2093 17.328V18C15.2093 19.5493 16.4507 20.8 18 20.8C18.2053 20.8 18.4107 20.772 18.6067 20.7253L20.156 22.2746C19.4933 22.5826 18.756 22.76 18 22.76C15.424 22.76 13.0533 20.8 13.0533 18H11.4667C11.4667 21.1826 14.0053 23.8146 17.0667 24.272V27.3333H18.9333V24.272C19.7827 24.1506 20.5853 23.852 21.304 23.432L25.2147 27.3333L26.4 26.148L10.7853 10.5333Z" fill="black"/>
</g>
</svg>
