<svg width="96" height="80" xmlns="http://www.w3.org/2000/svg">
 <g>
  <title>background</title>
  <rect x="-1" y="-1" width="98" height="82" id="canvas_background" fill="none"/>
 </g>

 <g>
  <title>Layer 1</title>
  <circle cx="3" cy="3" r="3" fill="#FFFFFF" id="svg_1"/>
  <circle cx="3" cy="19" r="3" fill="#FFFFFF" id="svg_2"/>
  <circle cx="3" cy="35" r="3" fill="#FFFFFF" id="svg_3"/>
  <circle cx="3" cy="51" r="3" fill="#FFFFFF" id="svg_4"/>
  <circle cx="3" cy="67" r="3" fill="#FFFFFF" id="svg_5"/>
  <circle cx="19" cy="3" r="3" fill="#FFFFFF" id="svg_6"/>
  <circle cx="19" cy="19" r="3" fill="#FFFFFF" id="svg_7"/>
  <circle cx="19" cy="35" r="3" fill="#FFFFFF" id="svg_8"/>
  <circle cx="19" cy="51" r="3" fill="#FFFFFF" id="svg_9"/>
  <circle cx="19" cy="67" r="3" fill="#FFFFFF" id="svg_10"/>
  <circle cx="35" cy="3" r="3" fill="#FFFFFF" id="svg_11"/>
  <circle cx="35" cy="19" r="3" fill="#FFFFFF" id="svg_12"/>
  <circle cx="35" cy="35" r="3" fill="#FFFFFF" id="svg_13"/>
  <circle cx="35" cy="51" r="3" fill="#FFFFFF" id="svg_14"/>
  <circle cx="35" cy="67" r="3" fill="#FFFFFF" id="svg_15"/>
  <circle cx="51" cy="3" r="3" fill="#FFFFFF" id="svg_16"/>
  <circle cx="51" cy="19" r="3" fill="#FFFFFF" id="svg_17"/>
  <circle cx="51" cy="35" r="3" fill="#FFFFFF" id="svg_18"/>
  <circle cx="51" cy="51" r="3" fill="#FFFFFF" id="svg_19"/>
  <circle cx="51" cy="67" r="3" fill="#FFFFFF" id="svg_20"/>
  <circle cx="67" cy="3" r="3" fill="#FFFFFF" id="svg_21"/>
  <circle cx="67" cy="19" r="3" fill="#FFFFFF" id="svg_22"/>
  <circle cx="67" cy="35" r="3" fill="#FFFFFF" id="svg_23"/>
  <circle cx="67" cy="51" r="3" fill="#FFFFFF" id="svg_24"/>
  <circle cx="67" cy="67" r="3" fill="#FFFFFF" id="svg_25"/>
  <circle cx="83" cy="3" r="3" fill="#FFFFFF" id="svg_26"/>
  <circle cx="83" cy="19" r="3" fill="#FFFFFF" id="svg_27"/>
  <circle cx="83" cy="35" r="3" fill="#FFFFFF" id="svg_28"/>
  <circle cx="83" cy="51" r="3" fill="#FFFFFF" id="svg_29"/>
  <circle cx="83" cy="67" r="3" fill="#FFFFFF" id="svg_30"/>
 </g>
</svg>